{
    "streams":[
       {
          "index":0,
          "codec_name":"h264",
          "codec_long_name":"H.264 / AVC / MPEG-4 AVC / MPEG-4 part 10",
          "profile":"Main",
          "codec_type":"video",
          "codec_tag_string":"avc1",
          "codec_tag":"0x31637661",
          "width":2304,
          "height":1296,
          "coded_width":2304,
          "coded_height":1296,
          "closed_captions":0,
          "film_grain":0,
          "has_b_frames":0,
          "pix_fmt":"yuv420p",
          "level":50,
          "chroma_location":"left",
          "field_order":"progressive",
          "refs":1,
          "is_avc":"true",
          "nal_length_size":"4",
          "id":"0x1",
          "r_frame_rate":"20/1",
          "avg_frame_rate":"20/1",
          "time_base":"1/90000",
          "start_pts":0,
          "start_time":"0.000000",
          "duration_ts":5400000,
          "duration":"60.000000",
          "bit_rate":"1469526",
          "bits_per_raw_sample":"8",
          "nb_frames":"1200",
          "extradata_size":34,
          "disposition":{
             "default":1,
             "dub":0,
             "original":0,
             "comment":0,
             "lyrics":0,
             "karaoke":0,
             "forced":0,
             "hearing_impaired":0,
             "visual_impaired":0,
             "clean_effects":0,
             "attached_pic":0,
             "timed_thumbnails":0,
             "non_diegetic":0,
             "captions":0,
             "descriptions":0,
             "metadata":0,
             "dependent":0,
             "still_image":0,
             "multilayer":0
          },
          "tags":{
             "creation_time":"2025-02-09T10:56:00.000000Z",
             "language":"und",
             "vendor_id":"[0][0][0][0]",
             "encoder":"JVT/AVC Coding"
          }
       },
       {
          "index":1,
          "codec_name":"aac",
          "codec_long_name":"AAC (Advanced Audio Coding)",
          "profile":"LC",
          "codec_type":"audio",
          "codec_tag_string":"mp4a",
          "codec_tag":"0x6134706d",
          "sample_fmt":"fltp",
          "sample_rate":"16000",
          "channels":1,
          "channel_layout":"mono",
          "bits_per_sample":0,
          "initial_padding":0,
          "id":"0x2",
          "r_frame_rate":"0/0",
          "avg_frame_rate":"0/0",
          "time_base":"1/16000",
          "start_pts":0,
          "start_time":"0.000000",
          "duration_ts":946016,
          "duration":"59.126000",
          "bit_rate":"15489",
          "nb_frames":"946",
          "extradata_size":2,
          "disposition":{
             "default":1,
             "dub":0,
             "original":0,
             "comment":0,
             "lyrics":0,
             "karaoke":0,
             "forced":0,
             "hearing_impaired":0,
             "visual_impaired":0,
             "clean_effects":0,
             "attached_pic":0,
             "timed_thumbnails":0,
             "non_diegetic":0,
             "captions":0,
             "descriptions":0,
             "metadata":0,
             "dependent":0,
             "still_image":0,
             "multilayer":0
          },
          "tags":{
             "creation_time":"2025-02-09T10:56:00.000000Z",
             "language":"und",
             "vendor_id":"[0][0][0][0]"
          }
       },
       {
          "index":2,
          "codec_name":"h264",
          "codec_long_name":"H.264 / AVC / MPEG-4 AVC / MPEG-4 part 10",
          "profile":"Main",
          "codec_type":"video",
          "codec_tag_string":"avc1",
          "codec_tag":"0x31637661",
          "width":640,
          "height":360,
          "coded_width":640,
          "coded_height":360,
          "closed_captions":0,
          "film_grain":0,
          "has_b_frames":0,
          "pix_fmt":"yuv420p",
          "level":22,
          "chroma_location":"left",
          "field_order":"progressive",
          "refs":1,
          "is_avc":"true",
          "nal_length_size":"4",
          "id":"0x3",
          "r_frame_rate":"20/1",
          "avg_frame_rate":"20/1",
          "time_base":"1/90000",
          "start_pts":0,
          "start_time":"0.000000",
          "duration_ts":5382000,
          "duration":"59.800000",
          "bit_rate":"421200",
          "bits_per_raw_sample":"8",
          "nb_frames":"1196",
          "extradata_size":34,
          "disposition":{
             "default":1,
             "dub":0,
             "original":0,
             "comment":0,
             "lyrics":0,
             "karaoke":0,
             "forced":0,
             "hearing_impaired":0,
             "visual_impaired":0,
             "clean_effects":0,
             "attached_pic":0,
             "timed_thumbnails":0,
             "non_diegetic":0,
             "captions":0,
             "descriptions":0,
             "metadata":0,
             "dependent":0,
             "still_image":0,
             "multilayer":0
          },
          "tags":{
             "creation_time":"2025-02-09T10:56:00.000000Z",
             "language":"und",
             "vendor_id":"[0][0][0][0]",
             "encoder":"JVT/AVC Coding"
          }
       }
    ],
    "format":{
       "filename":"/mnt/hdd/diegocaro/aqara_video/lumi1.54ef44603857/20250209/105600.mp4",
       "nb_streams":3,
       "nb_programs":0,
       "nb_stream_groups":0,
       "format_name":"mov,mp4,m4a,3gp,3g2,mj2",
       "format_long_name":"QuickTime / MOV",
       "start_time":"0.000000",
       "duration":"60.000000",
       "size":"14307222",
       "bit_rate":"1907629",
       "probe_score":100,
       "tags":{
          "major_brand":"mp42",
          "minor_version":"0",
          "compatible_brands":"mp42isom",
          "creation_time":"2025-02-09T10:55:00.000000Z"
       }
    }
 }